<svg version="1" xmlns="http://www.w3.org/2000/svg" width="150" height="150" viewBox="0 0 1500 1500"><path d="M610 1494c-269-52-494-252-582-518C8 914 5 886 5 750s3-164 23-226C112 269 326 71 577 16c92-20 254-20 346 0 251 55 465 253 549 508 20 62 23 90 23 226s-3 164-23 226c-78 234-251 410-485 491-61 22-93 26-212 29-77 1-151 0-165-2zm89-228c8-10 29-16 52-16 46 0 69 27 69 81v37l63-14c229-52 419-242 471-471l14-63h-37c-54 0-81-23-81-70s27-70 81-70h37l-14-62c-52-230-242-420-471-472l-63-14v37c0 54-23 81-70 81s-70-27-70-81v-37l-62 14c-230 52-420 242-472 471l-14 63h37c54 0 81 23 81 70s-27 70-81 70h-37l14 63c51 225 231 409 456 466l73 19 5-43c3-23 12-50 19-59z"/><path d="M658 1018l-44-132-129-43c-70-23-130-45-132-47-3-3 153-84 347-181s354-174 357-172c4 5-344 707-351 707-2 0-24-59-48-132zm160-243l92-185-185 92c-102 51-185 95-185 99 0 3 27 14 60 24s64 23 69 29 17 37 27 69c10 31 20 57 23 57 4 0 48-83 99-185z"/></svg>