<svg version="1" xmlns="http://www.w3.org/2000/svg" width="289" height="94" viewBox="0 0 2890 940"><path d="M1056 922c-4-11-2-31 4-46 6-18 6-25 0-21-6 3-10 2-10-4 0-11 19-25 35-26 6 0 9-8 7-18-2-9 10-33 25-52 29-37 127-119 173-145 97-55 200-139 200-163 0-28-83-36-129-13-39 21-97 87-110 129-16 48-35 52-66 16-14-17-25-34-25-37 0-4 12-29 25-57 14-27 25-58 25-67 0-68-160 79-176 161-9 43-19 46-49 14-32-35-27-67 23-141 83-123 156-153 223-94l31 28 46-23c25-13 59-23 76-23 59 0 123 43 173 119 1 2 14-10 28-27 36-43 78-56 107-33 21 18 21 19 5 45-10 14-15 26-11 26 3 0-9 12-26 26-38 33-27 47 23 32 60-18 107-75 107-128 0-21-60-43-87-33-10 4-14 2-10-4s-2-13-13-16c-12-3-20-14-20-27 0-21 3-22 60-18 70 5 104 30 122 90 25 84-47 206-136 230-60 16-92-2-127-72-16-30-28-48-29-38 0 25-87 97-191 158-88 52-220 169-276 243-19 27-22 27-27 9zM60 612c-67-33-71-118-9-208 58-84 188-182 264-198l30-6-22 19c-12 10-25 30-29 45-3 14-20 35-38 45-44 28-154 143-166 176-12 32-13 95-1 95 21 0 81-81 81-109 0-41 9-61 29-61 32 1 48 25 55 85 3 33 9 77 12 98 5 31 3 37-12 37-10 0-27-9-39-20l-22-20-25 20c-32 25-62 25-108 2z"/><path d="M338 614c-57-31-73-113-40-209 14-42 21-50 42-50h25l-3 108c-2 66 1 107 7 107 20 0 78-82 139-196l63-118-25-19c-19-14-26-28-26-53 0-19 2-34 4-34s24 9 50 21c26 11 54 19 63 17s23-26 33-58c9-30 27-72 40-94 22-36 24-37 37-20 17 23 16 67-2 127l-14 47h47c115-1 259-31 677-143 103-28 152-23 80 6-25 11-43 23-40 27 3 5-27 18-67 30s-122 36-183 55c-205 63-293 82-474 103l-63 7-24 83c-28 96-82 241-97 260-10 13-54 9-70-7-4-4 3-32 17-62 24-55 78-211 90-261 3-16 2-28-3-28-10 0-27 39-23 54 4 11-36 109-65 161-12 22-31 56-42 77-40 72-95 94-153 62z"/><path d="M751 617c-29-14-70-90-71-129 0-33 41-83 80-96 24-9 34-7 52 7 21 18 21 19 5 45-10 14-15 26-11 26 3 0-9 12-26 26-38 33-27 47 23 32 60-18 107-75 107-128 0-21-60-43-87-33-10 4-14 2-10-4s-2-13-13-16c-12-3-20-14-20-27 0-21 3-22 60-18 70 5 104 30 122 90 23 78-42 199-123 227-41 14-58 14-88-2zm1092 3c-13-5-23-11-23-13 0-3 11-29 24-59 24-55 78-210 90-260 6-24 3-28-16-28-13 0-38-9-55-20-27-16-33-26-33-55 0-19 2-35 4-35s24 9 50 21c26 11 54 19 63 17s23-26 33-58c9-30 27-72 40-94 22-36 24-37 37-20 17 23 16 67-2 127l-14 47h47c115-1 259-31 677-143 103-28 152-23 80 6-25 11-43 23-40 27 3 5-27 18-67 30s-122 36-183 55c-205 63-293 82-474 103l-63 7-24 83c-27 94-82 241-97 260-11 14-23 14-54 2z"/><path d="M2013 623c-13-2-23-7-23-11 2-48 61-298 74-310 11-12 16-13 16-3 0 8 7 10 19 6 13-4 21 0 25 12 3 10 24 25 45 34 34 15 40 22 46 60 4 24 10 50 14 57 4 8 40-36 95-117 112-166 142-183 114-66-15 63-15 64 5 52 53-32 65-37 100-37 43 0 92 22 101 45 12 31 6 83-11 103-23 27-92 62-120 62-22 0-63-31-63-48 0-4 21-15 48-24 26-10 58-27 72-40 22-20 22-23 7-26-32-6-126 47-143 81-16 30-16 32 9 53 28 24 126 64 155 64 10 0 27 6 38 14 19 15 19 15-1 30-28 21-64 20-132-6-78-29-119-71-128-131l-7-46-33 48c-18 26-45 71-60 100-25 51-28 53-58 47-17-4-35-10-39-14s-17-59-28-122c-12-63-22-116-24-117-1-2-10 52-20 119-9 66-19 125-22 129-5 9-31 10-71 2z"/></svg>