<svg version="1" xmlns="http://www.w3.org/2000/svg" width="116" height="155" viewBox="0 0 1160 1550"><path d="M396 1528c-9-12-16-42-16-65 0-29-4-43-13-43-26 0-47-36-47-78 0-23-5-42-10-42-6 0-22-11-35-25-19-18-25-35-25-65 0-31-6-46-25-63-29-26-192-351-211-422-18-66-18-226 1-295 27-102 73-180 154-260C292 48 408 0 580 0s288 48 411 170c81 80 127 158 154 260 19 69 19 229 1 295-20 72-182 396-211 422-19 17-25 32-25 63 0 30-6 47-25 65-13 14-29 25-35 25-5 0-10 20-10 43 0 43-21 77-48 77-7 0-12 17-12 43 0 23-7 53-16 65-15 21-21 22-184 22s-169-1-184-22zm304-73v-25H460v50h240v-25zm70-130v-25H390v50h380v-25zm60-130v-25H330v50h500v-25zm97-312c101-210 114-264 89-380-39-187-172-320-358-359C329 75 38 429 167 740c10 25 47 100 81 168l62 122h547l70-147z"/><path d="M888 520c-32-134-122-222-258-251-48-10-50-12-50-45 0-31 3-34 28-34 46 0 133 29 185 62 94 60 162 168 174 278l6 60h-34c-35 0-35 0-51-70z"/></svg>