<svg version="1" xmlns="http://www.w3.org/2000/svg" width="163" height="142" viewBox="0 0 1630 1420"><path d="M443 1060C123 742 78 693 51 636-58 409 37 145 267 37 327 9 347 5 440 2c87-3 115 0 164 17 72 26 146 71 184 115l28 33 55-50c30-28 83-64 119-81 62-29 71-31 190-31 120 0 128 1 192 32 166 78 258 224 258 406 0 117-30 202-100 282-69 79-700 695-712 695-7 0-176-162-375-360zm691-136c264-261 310-310 333-360 70-153 2-328-157-403-44-21-70-26-130-26-105 0-151 24-266 137l-94 92-94-92C611 159 565 135 460 135c-60 0-86 5-131 26-100 47-170 142-185 251-7 52 16 145 48 193 25 36 620 625 629 622 4-1 144-138 313-303z"/><path d="M1271 586l-22-24 20-38c25-47 26-65 4-111-18-39-65-73-100-73-20 0-23-5-23-41v-42l43 7c54 8 116 51 145 101 31 55 28 164-6 213-28 38-32 39-61 8z"/></svg>