<svg version="1" xmlns="http://www.w3.org/2000/svg" width="137" height="137" viewBox="0 0 1370 1370"><path d="M1185 1351c-16-10-136-125-265-255L686 860l-246 244c-212 210-250 244-283 250-82 15-156-58-141-141 6-33 42-73 270-303l264-265-264-264C28 123 22 117 10 63 4 33 1 6 3 3c3-2 30 1 60 7 54 12 60 18 318 276l264 264 71-71c71-71 72-72 62-108-26-94 18-218 107-300 67-60 106-74 195-69 53 3 76 9 110 32l42 28-111 112c-67 68-111 121-111 133 0 24 30 53 55 53 10 0 69-50 131-111l112-111 28 42c23 34 29 57 32 110 5 89-9 128-69 195-82 89-206 133-300 107-36-10-38-8-88 42l-51 51 241 240c132 132 247 252 255 267s14 47 14 72c0 36-6 50-31 75-25 26-38 31-77 31-29 0-59-7-77-19zm105-61c29-29 25-45-27-101l-46-50-39 38-39 38 50 48c55 52 71 57 101 27zm-1092-45l47-44-37-38-38-37-40 39c-49 48-59 78-35 105 27 30 52 24 103-25zm932-120l34-35-174-175-174-175-38 37-38 37 172 173c95 95 175 173 178 173 4 0 21-16 40-35zM637 733l-37-38-190 190-190 189 37 38 37 38 191-190 190-190-38-37zm197-122l59-59-38-37-37-38-61 61-61 62 34 35c19 19 37 35 40 35s32-27 64-59zm321-105c96-45 164-148 149-225l-7-31-87 84c-91 88-129 107-182 91-34-11-76-54-83-86-13-56 4-89 92-180l84-87-40-7c-54-9-114 19-168 78-57 62-76 108-71 179 11 158 170 251 313 184z"/></svg>